<mxfile host="app.diagrams.net" agent="Mozilla/5.0 (Windows NT 10.0; Win64; x64) AppleWebKit/537.36 (KHTML, like Gecko) Chrome/129.0.0.0 Safari/537.36" version="24.7.17">
  <diagram name="Page-1" id="mArK0XylUQAMDkxAmTKc">
    <mxGraphModel dx="1499" dy="655" grid="1" gridSize="10" guides="1" tooltips="1" connect="1" arrows="1" fold="1" page="1" pageScale="1" pageWidth="850" pageHeight="1100" math="0" shadow="0">
      <root>
        <mxCell id="0" />
        <mxCell id="1" parent="0" />
        <mxCell id="XhZ4Yk9WZQLZdWOUmKJe-3" value="" style="edgeStyle=orthogonalEdgeStyle;rounded=0;orthogonalLoop=1;jettySize=auto;html=1;" edge="1" parent="1" source="XhZ4Yk9WZQLZdWOUmKJe-1" target="XhZ4Yk9WZQLZdWOUmKJe-2">
          <mxGeometry relative="1" as="geometry" />
        </mxCell>
        <mxCell id="XhZ4Yk9WZQLZdWOUmKJe-1" value="Start" style="rounded=1;whiteSpace=wrap;html=1;" vertex="1" parent="1">
          <mxGeometry x="330" y="100" width="120" height="60" as="geometry" />
        </mxCell>
        <mxCell id="XhZ4Yk9WZQLZdWOUmKJe-5" value="" style="edgeStyle=orthogonalEdgeStyle;rounded=0;orthogonalLoop=1;jettySize=auto;html=1;" edge="1" parent="1" source="XhZ4Yk9WZQLZdWOUmKJe-2" target="XhZ4Yk9WZQLZdWOUmKJe-4">
          <mxGeometry relative="1" as="geometry" />
        </mxCell>
        <mxCell id="XhZ4Yk9WZQLZdWOUmKJe-2" value="Ask for year input" style="whiteSpace=wrap;html=1;rounded=1;" vertex="1" parent="1">
          <mxGeometry x="330" y="200" width="120" height="60" as="geometry" />
        </mxCell>
        <mxCell id="XhZ4Yk9WZQLZdWOUmKJe-8" style="edgeStyle=orthogonalEdgeStyle;rounded=0;orthogonalLoop=1;jettySize=auto;html=1;" edge="1" parent="1" source="XhZ4Yk9WZQLZdWOUmKJe-4" target="XhZ4Yk9WZQLZdWOUmKJe-9">
          <mxGeometry relative="1" as="geometry">
            <mxPoint x="300" y="550" as="targetPoint" />
          </mxGeometry>
        </mxCell>
        <mxCell id="XhZ4Yk9WZQLZdWOUmKJe-12" style="edgeStyle=orthogonalEdgeStyle;rounded=0;orthogonalLoop=1;jettySize=auto;html=1;entryX=0.5;entryY=0;entryDx=0;entryDy=0;" edge="1" parent="1" source="XhZ4Yk9WZQLZdWOUmKJe-4" target="XhZ4Yk9WZQLZdWOUmKJe-6">
          <mxGeometry relative="1" as="geometry" />
        </mxCell>
        <mxCell id="XhZ4Yk9WZQLZdWOUmKJe-4" value="Check if the year is divisible by 4" style="rhombus;whiteSpace=wrap;html=1;rounded=1;" vertex="1" parent="1">
          <mxGeometry x="322.5" y="330" width="135" height="130" as="geometry" />
        </mxCell>
        <mxCell id="XhZ4Yk9WZQLZdWOUmKJe-13" style="edgeStyle=orthogonalEdgeStyle;rounded=0;orthogonalLoop=1;jettySize=auto;html=1;exitX=1;exitY=0.5;exitDx=0;exitDy=0;entryX=0.5;entryY=0;entryDx=0;entryDy=0;" edge="1" parent="1" source="XhZ4Yk9WZQLZdWOUmKJe-6" target="XhZ4Yk9WZQLZdWOUmKJe-7">
          <mxGeometry relative="1" as="geometry" />
        </mxCell>
        <mxCell id="XhZ4Yk9WZQLZdWOUmKJe-6" value="Check if the year is not divisible by 100" style="rhombus;whiteSpace=wrap;html=1;rounded=1;" vertex="1" parent="1">
          <mxGeometry x="480" y="420" width="150" height="170" as="geometry" />
        </mxCell>
        <mxCell id="XhZ4Yk9WZQLZdWOUmKJe-11" style="edgeStyle=orthogonalEdgeStyle;rounded=0;orthogonalLoop=1;jettySize=auto;html=1;entryX=0.5;entryY=1;entryDx=0;entryDy=0;" edge="1" parent="1" source="XhZ4Yk9WZQLZdWOUmKJe-7" target="XhZ4Yk9WZQLZdWOUmKJe-9">
          <mxGeometry relative="1" as="geometry" />
        </mxCell>
        <mxCell id="XhZ4Yk9WZQLZdWOUmKJe-15" value="" style="edgeStyle=orthogonalEdgeStyle;rounded=0;orthogonalLoop=1;jettySize=auto;html=1;" edge="1" parent="1" source="XhZ4Yk9WZQLZdWOUmKJe-7" target="XhZ4Yk9WZQLZdWOUmKJe-14">
          <mxGeometry relative="1" as="geometry" />
        </mxCell>
        <mxCell id="XhZ4Yk9WZQLZdWOUmKJe-7" value="Check if the year is divisible by 400" style="rhombus;whiteSpace=wrap;html=1;rounded=1;" vertex="1" parent="1">
          <mxGeometry x="680" y="610" width="135" height="130" as="geometry" />
        </mxCell>
        <mxCell id="XhZ4Yk9WZQLZdWOUmKJe-9" value="Not Leap" style="rounded=1;whiteSpace=wrap;html=1;" vertex="1" parent="1">
          <mxGeometry x="130" y="560" width="120" height="60" as="geometry" />
        </mxCell>
        <mxCell id="XhZ4Yk9WZQLZdWOUmKJe-10" style="edgeStyle=orthogonalEdgeStyle;rounded=0;orthogonalLoop=1;jettySize=auto;html=1;entryX=0.992;entryY=0.367;entryDx=0;entryDy=0;entryPerimeter=0;" edge="1" parent="1" source="XhZ4Yk9WZQLZdWOUmKJe-6" target="XhZ4Yk9WZQLZdWOUmKJe-9">
          <mxGeometry relative="1" as="geometry" />
        </mxCell>
        <mxCell id="XhZ4Yk9WZQLZdWOUmKJe-14" value="Leap year" style="whiteSpace=wrap;html=1;rounded=1;" vertex="1" parent="1">
          <mxGeometry x="687.5" y="855" width="120" height="60" as="geometry" />
        </mxCell>
        <mxCell id="XhZ4Yk9WZQLZdWOUmKJe-16" value="Yes" style="text;html=1;align=center;verticalAlign=middle;resizable=0;points=[];autosize=1;strokeColor=none;fillColor=none;" vertex="1" parent="1">
          <mxGeometry x="480" y="348" width="40" height="30" as="geometry" />
        </mxCell>
        <mxCell id="XhZ4Yk9WZQLZdWOUmKJe-17" value="No" style="text;html=1;align=center;verticalAlign=middle;resizable=0;points=[];autosize=1;strokeColor=none;fillColor=none;" vertex="1" parent="1">
          <mxGeometry x="230" y="348" width="40" height="30" as="geometry" />
        </mxCell>
        <mxCell id="XhZ4Yk9WZQLZdWOUmKJe-18" value="NO" style="text;html=1;align=center;verticalAlign=middle;resizable=0;points=[];autosize=1;strokeColor=none;fillColor=none;" vertex="1" parent="1">
          <mxGeometry x="400" y="468" width="40" height="30" as="geometry" />
        </mxCell>
        <mxCell id="XhZ4Yk9WZQLZdWOUmKJe-19" value="YES" style="text;html=1;align=center;verticalAlign=middle;resizable=0;points=[];autosize=1;strokeColor=none;fillColor=none;" vertex="1" parent="1">
          <mxGeometry x="675" y="458" width="50" height="30" as="geometry" />
        </mxCell>
        <mxCell id="XhZ4Yk9WZQLZdWOUmKJe-20" value="NO" style="text;html=1;align=center;verticalAlign=middle;resizable=0;points=[];autosize=1;strokeColor=none;fillColor=none;" vertex="1" parent="1">
          <mxGeometry x="600" y="648" width="40" height="30" as="geometry" />
        </mxCell>
        <mxCell id="XhZ4Yk9WZQLZdWOUmKJe-21" value="Yes" style="text;html=1;align=center;verticalAlign=middle;resizable=0;points=[];autosize=1;strokeColor=none;fillColor=none;" vertex="1" parent="1">
          <mxGeometry x="750" y="768" width="40" height="30" as="geometry" />
        </mxCell>
      </root>
    </mxGraphModel>
  </diagram>
</mxfile>
